<?xml version="1.0" encoding="utf-8"?>
<!-- Generator: Adobe Illustrator 19.0.0, SVG Export Plug-In . SVG Version: 6.00 Build 0)  -->
<svg version="1.2" baseProfile="tiny" id="Layer_1" xmlns="http://www.w3.org/2000/svg" xmlns:xlink="http://www.w3.org/1999/xlink"
	 x="0px" y="0px" viewBox="0 0 300 232.5" xml:space="preserve">
<g>
	<path fill="#FFE3C2" d="M219.8,93V58.1l-34.9-34.8H80.3V93L57,139.5v69.8h186v-69.8L219.8,93z M80.3,119v20.5H70L80.3,119z
		 M173.3,174.4h-46.5l-23.3-34.9H91.8v-34.9V34.9H180l28.1,28v41.7v34.8h-11.6L173.3,174.4z M219.8,139.5V119l10.3,20.5H219.8z
		 M161.6,58.1h-58.1V46.5h58.1V58.1z M131.2,81.4h-27.7V69.8h27.7V81.4z"/>
	<path fill="#995324" d="M180.1,34.9l28.1,28v41.7v34.8h-11.6l-23.3,34.9h-46.5l-23.3-34.9H91.8H80.2H70L80.3,119V93L57,139.5v69.8
		h186v-69.8L219.8,93V58.1l-34.9-34.8 M219.8,139.5V119l10.3,20.5H219.8z"/>
</g>
</svg>
