<?xml version="1.0" encoding="utf-8"?>
<!-- Generator: Adobe Illustrator 19.0.0, SVG Export Plug-In . SVG Version: 6.00 Build 0)  -->
<svg version="1.2" baseProfile="tiny" id="Layer_1" xmlns="http://www.w3.org/2000/svg" xmlns:xlink="http://www.w3.org/1999/xlink"
	 x="0px" y="0px" viewBox="0 0 300 210" xml:space="preserve">
<path fill="#C1DFF5" d="M162.5,82.6c0-6.9-5.6-12.5-12.5-12.5c-6.9,0-12.5,5.6-12.5,12.5c0,5.1,3.1,9.5,7.5,11.5
	c-3.1,27.9-14.4,54.4-32.5,76.1c11.9-5.6,24.7-8.3,37.5-8.3s25.6,2.8,37.5,8.3c-18.1-21.7-29.4-48.2-32.5-76.1
	C159.4,92.1,162.5,87.7,162.5,82.6z M166.6,154.9c-5.5-1-11.1-1.5-16.7-1.5c-5.6,0-11.1,0.5-16.7,1.5c7.5-12.9,13.2-26.9,16.7-41.4
	C153.5,128.1,159.1,142,166.6,154.9z M122.9,57.5l8.8,8.8c-8.9,8.9-8.9,23.5,0,32.4l-8.8,8.8C109,93.9,109,71.4,122.9,57.5z
	 M114,116.5l-8.8,8.8c-11.4-11.4-17.7-26.6-17.7-42.7s6.3-31.3,17.7-42.7l8.8,8.8c-9,9-14,21.1-14,33.9
	C100,95.4,104.9,107.5,114,116.5z M168.3,98.8c4.3-4.3,6.7-10.1,6.7-16.2c0-6.1-2.4-11.9-6.7-16.2l8.8-8.8
	c6.7,6.7,10.4,15.6,10.4,25.1c0,9.4-3.7,18.4-10.4,25.1L168.3,98.8z M212.5,82.6c0,16.1-6.3,31.3-17.7,42.7l-8.8-8.8
	c9-9,14.1-21.1,14.1-33.9s-5-24.9-14.1-33.9l8.8-8.8C206.2,51.3,212.5,66.4,212.5,82.6z"/>
</svg>
