<?xml version="1.0" encoding="UTF-8" standalone="no"?>
<!-- Generator: Adobe Illustrator 19.0.0, SVG Export Plug-In . SVG Version: 6.00 Build 0)  -->

<svg
   xmlns:dc="http://purl.org/dc/elements/1.1/"
   xmlns:cc="http://creativecommons.org/ns#"
   xmlns:rdf="http://www.w3.org/1999/02/22-rdf-syntax-ns#"
   xmlns:svg="http://www.w3.org/2000/svg"
   xmlns="http://www.w3.org/2000/svg"
   xmlns:sodipodi="http://sodipodi.sourceforge.net/DTD/sodipodi-0.dtd"
   xmlns:inkscape="http://www.inkscape.org/namespaces/inkscape"
   version="1.2"
   id="Layer_1"
   x="0px"
   y="0px"
   viewBox="0 0 300 232.5"
   xml:space="preserve"
   sodipodi:docname="home_start.svg"
   inkscape:version="0.92.2 5c3e80d, 2017-08-06"><metadata
     id="metadata13"><rdf:RDF><cc:Work
         rdf:about=""><dc:format>image/svg+xml</dc:format><dc:type
           rdf:resource="http://purl.org/dc/dcmitype/StillImage" /></cc:Work></rdf:RDF></metadata><defs
     id="defs11" /><sodipodi:namedview
     pagecolor="#ffffff"
     bordercolor="#666666"
     borderopacity="1"
     objecttolerance="10"
     gridtolerance="10"
     guidetolerance="10"
     inkscape:pageopacity="0"
     inkscape:pageshadow="2"
     inkscape:window-width="1395"
     inkscape:window-height="784"
     id="namedview9"
     showgrid="false"
     inkscape:zoom="1.4355028"
     inkscape:cx="167.16299"
     inkscape:cy="116.25"
     inkscape:window-x="0"
     inkscape:window-y="0"
     inkscape:window-maximized="0"
     inkscape:current-layer="Layer_1" /><g
     id="XMLID_9_"
     transform="matrix(0.92450423,0,0,0.92450423,12.110845,7.550068)"><path
       id="XMLID_5_"
       d="M 124.4,94.1 48.5,152.3 V 167 l 85.3,-65.5 c -1.9,-2.4 -7.4,-9 -9.4,-7.4 z"
       inkscape:connector-curvature="0"
       style="fill:#34843f" /><path
       id="XMLID_4_"
       d="M 173.1,156.7 110.5,205 H 127 l 54.8,-41.8 c -1.9,-2.4 -6.7,-8 -8.7,-6.5 z"
       inkscape:connector-curvature="0"
       style="fill:#34843f" /><path
       id="XMLID_3_"
       d="m 197.1,188 -22,17 H 192 l 13.8,-10.4 c -1.9,-2.6 -6.7,-8.2 -8.7,-6.6 z"
       inkscape:connector-curvature="0"
       style="fill:#34843f" /><path
       id="XMLID_2_"
       d="m 64.6,191.9 c -0.5,-1.9 -1.5,-4 -1.3,-6.1 L 48.5,197 v 7.9 h 3.4 c 0.8,0 1.6,-0.2 2.2,-0.7 l 13.7,-10.5 c -0.6,0 -0.7,0 -1.3,0 -1.1,0 -1.7,-0.7 -1.9,-1.8 z"
       inkscape:connector-curvature="0"
       style="fill:#2c7238" /><path
       id="XMLID_1_"
       d="m 248,65.8 c 0.1,-0.1 0.2,-0.2 0.3,-0.4 2,-2.3 3,-4.8 3.2,-7.9 -0.3,-11.2 -13.9,-21 -23.8,-13.1 L 209,60.7 c -5.6,4.8 -11.3,9.6 -17,14.5 -25.1,21.3 -50.1,42.6 -75.1,64 -7.1,6.1 -14.3,12.2 -21.5,18.3 -2.2,1.9 -3.9,3.9 -5.4,6.4 -2.7,4.4 -5.3,9.1 -7.2,13.9 -1.1,2.7 -2.9,6.5 -2.7,9.8 5.4,0 10.9,-0.8 16.2,-1.7 4.2,-0.7 9.4,-1 13.4,-2.6 2.2,-0.8 3.5,-1.9 5.2,-3.3 4.6,-3.9 9.3,-7.9 13.9,-11.9 33.5,-28.5 67,-57.1 100.4,-85.6 z"
       inkscape:connector-curvature="0"
       style="fill:#d6eacd" /></g></svg>