<?xml version="1.0" encoding="UTF-8" standalone="no"?>
<!-- Generator: Adobe Illustrator 19.0.0, SVG Export Plug-In . SVG Version: 6.00 Build 0)  -->

<svg
   xmlns:dc="http://purl.org/dc/elements/1.1/"
   xmlns:cc="http://creativecommons.org/ns#"
   xmlns:rdf="http://www.w3.org/1999/02/22-rdf-syntax-ns#"
   xmlns:svg="http://www.w3.org/2000/svg"
   xmlns="http://www.w3.org/2000/svg"
   xmlns:sodipodi="http://sodipodi.sourceforge.net/DTD/sodipodi-0.dtd"
   xmlns:inkscape="http://www.inkscape.org/namespaces/inkscape"
   version="1.2"
   id="Layer_1"
   x="0px"
   y="0px"
   viewBox="0 0 300 232.5"
   xml:space="preserve"
   sodipodi:docname="home_training.svg"
   inkscape:version="0.92.2 5c3e80d, 2017-08-06"><metadata
     id="metadata66"><rdf:RDF><cc:Work
         rdf:about=""><dc:format>image/svg+xml</dc:format><dc:type
           rdf:resource="http://purl.org/dc/dcmitype/StillImage" /><dc:title /></cc:Work></rdf:RDF></metadata><defs
     id="defs64" /><sodipodi:namedview
     pagecolor="#ffffff"
     bordercolor="#666666"
     borderopacity="1"
     objecttolerance="10"
     gridtolerance="10"
     guidetolerance="10"
     inkscape:pageopacity="0"
     inkscape:pageshadow="2"
     inkscape:window-width="1343"
     inkscape:window-height="824"
     id="namedview62"
     showgrid="false"
     inkscape:zoom="1.2602151"
     inkscape:cx="80.170651"
     inkscape:cy="52.768774"
     inkscape:window-x="0"
     inkscape:window-y="0"
     inkscape:window-maximized="0"
     inkscape:current-layer="Layer_1" /><g
     style="overflow:visible;fill:#dbd3e5;fill-rule:evenodd;stroke-width:0.50099999;stroke-linejoin:bevel"
     id="g3933"
     transform="matrix(2.1577436,0,0,2.1577436,45.701087,11.087082)"><g
       id="g3919"
       transform="scale(1,-1)"
       font-size="16"
       style="font-size:16px;font-family:'Times New Roman';fill:none;stroke:#000000"><g
         id="g3917"
         transform="translate(0,-96)"><g
           id="g3915"><path
             id="path3913"
             stroke-miterlimit="79.8403193612775"
             d="m 32.214,12.396 v 4.575 c 0,1.147 0.93,2.076 2.078,2.076 h 13.212 c 1.145,0 2.073,-0.929 2.073,-2.076 v -4.575 z m 20.213,0 v 4.575 c 0,1.147 0.928,2.076 2.075,2.076 h 13.215 c 1.145,0 2.075,-0.929 2.075,-2.076 v -4.575 z m 20.21,0 v 4.575 c 0,1.147 0.931,2.076 2.076,2.076 H 87.93 c 1.142,0 2.073,-0.929 2.073,-2.076 V 12.396 Z M 10.618,19.311 V 39.05 H 8.184 c -1.206,0 -2.187,0.979 -2.187,2.187 v 19.761 c 0,1.206 0.981,2.187 2.187,2.187 h 5.405 l 4.53,-4.53 4.529,4.53 h 6.725 v 15.157 c 0,1.354 1.101,2.458 2.458,2.458 h 16.031 c -0.016,0.113 -0.024,0.229 -0.024,0.347 0,1.355 1.101,2.458 2.458,2.458 h 8.039 c 1.354,0 2.458,-1.103 2.458,-2.458 0,-0.118 -0.009,-0.234 -0.025,-0.347 h 18.079 c 1.354,0 2.458,-1.104 2.458,-2.458 V 42.769 c 0,-1.357 -1.104,-2.458 -2.458,-2.458 h -5.768 c -1.357,0 -2.459,1.101 -2.459,2.458 0,1.354 1.102,2.458 2.459,2.458 h 3.31 v 30.657 h -42.1 V 63.185 h 4.827 c 1.206,0 2.185,-0.981 2.185,-2.187 v -2.635 c 0,-1.206 -0.979,-2.185 -2.185,-2.185 H 34.289 V 45.227 h 22.695 c 1.355,0 2.458,-1.104 2.458,-2.458 0,-1.357 -1.103,-2.458 -2.458,-2.458 H 31.831 c -1.357,0 -2.458,1.101 -2.458,2.458 V 56.178 H 25.624 V 19.311 c 0,-0.972 -0.791,-1.763 -1.763,-1.763 h -4.018 c -0.844,0 -1.55,0.592 -1.722,1.381 -0.175,-0.789 -0.881,-1.381 -1.722,-1.381 h -4.018 c -0.972,0 -1.763,0.791 -1.763,1.763 z m 24.559,7.051 c 0,3.039 2.471,5.51 5.51,5.51 3.039,0 5.51,-2.471 5.51,-5.51 0,-3.039 -2.471,-5.51 -5.51,-5.51 -3.039,0 -5.51,2.471 -5.51,5.51 z m 20.21,0 c 0,3.039 2.471,5.51 5.511,5.51 3.039,0 5.51,-2.471 5.51,-5.51 0,-3.039 -2.471,-5.51 -5.51,-5.51 -3.04,0 -5.511,2.471 -5.511,5.51 z m 20.211,0 c 0,3.039 2.471,5.51 5.51,5.51 3.039,0 5.51,-2.471 5.51,-5.51 0,-3.039 -2.471,-5.51 -5.51,-5.51 -3.039,0 -5.51,2.471 -5.51,5.51 z M 62.381,42.769 c 0,1.354 1.101,2.458 2.458,2.458 h 0.382 c 1.355,0 2.459,-1.104 2.459,-2.458 0,-1.357 -1.104,-2.458 -2.459,-2.458 h -0.382 c -1.357,0 -2.458,1.101 -2.458,2.458 z m -49.895,28.48 c 0,3.204 2.604,5.808 5.807,5.808 3.204,0 5.808,-2.604 5.808,-5.808 0,-3.203 -2.604,-5.807 -5.808,-5.807 -3.203,0 -5.807,2.604 -5.807,5.807 z"
             inkscape:connector-curvature="0"
             style="fill:#dbd3e5;stroke:none;stroke-width:1.63900006;stroke-linecap:round;stroke-linejoin:miter;stroke-miterlimit:79.84031677;marker-start:none;marker-end:none" /></g></g></g></g></svg>