<?xml version="1.0" encoding="utf-8"?>
<!-- Generator: Adobe Illustrator 19.0.0, SVG Export Plug-In . SVG Version: 6.00 Build 0)  -->
<svg version="1.1" id="Layer_1" xmlns="http://www.w3.org/2000/svg" xmlns:xlink="http://www.w3.org/1999/xlink" x="0px" y="0px"
	 viewBox="0 23 600 420" style="enable-background:new 0 23 600 420;" xml:space="preserve">
<style type="text/css">
	.st0{fill:#D8D7D4;}
</style>
<g>
	<polygon id="XMLID_3_" class="st0" points="295.4,218.7 295.4,247.3 404.1,247.3 404.1,218.7 	"/>
	<polygon id="XMLID_2_" class="st0" points="458.5,233 401.1,190 401.1,276 	"/>
	<polygon id="XMLID_1_" class="st0" points="343.8,333.4 236.2,333.4 236.2,132.6 343.8,132.6 343.8,190 372.4,190 372.4,103.9 
		372.4,103.9 207.5,103.9 207.5,362.1 372.4,362.1 372.4,276 343.8,276 	"/>
</g>
<g>
	<polygon id="XMLID_6_" class="st0" points="294.4,218.7 294.4,247.3 403.1,247.3 403.1,218.7 	"/>
	<polygon id="XMLID_5_" class="st0" points="457.5,233 400.1,190 400.1,276 	"/>
	<polygon id="XMLID_4_" class="st0" points="342.8,333.4 235.2,333.4 235.2,132.6 342.8,132.6 342.8,190 371.4,190 371.4,103.9 
		371.4,103.9 206.5,103.9 206.5,362.1 371.4,362.1 371.4,276 342.8,276 	"/>
</g>
<g>
	<polygon id="XMLID_9_" class="st0" points="293.4,218.7 293.4,247.3 402.1,247.3 402.1,218.7 	"/>
	<polygon id="XMLID_8_" class="st0" points="456.5,233 399.1,190 399.1,276 	"/>
	<polygon id="XMLID_7_" class="st0" points="341.8,333.4 234.2,333.4 234.2,132.6 341.8,132.6 341.8,190 370.4,190 370.4,103.9 
		370.4,103.9 205.5,103.9 205.5,362.1 370.4,362.1 370.4,276 341.8,276 	"/>
</g>
<g>
	<polygon id="XMLID_12_" class="st0" points="294.4,218.7 294.4,247.3 403.1,247.3 403.1,218.7 	"/>
	<polygon id="XMLID_11_" class="st0" points="457.5,233 400.1,190 400.1,276 	"/>
	<polygon id="XMLID_10_" class="st0" points="342.8,333.4 235.2,333.4 235.2,132.6 342.8,132.6 342.8,190 371.4,190 371.4,103.9 
		371.4,103.9 206.5,103.9 206.5,362.1 371.4,362.1 371.4,276 342.8,276 	"/>
</g>
<g>
	<polygon id="XMLID_15_" class="st0" points="295.4,218.7 295.4,247.3 404.1,247.3 404.1,218.7 	"/>
	<polygon id="XMLID_14_" class="st0" points="458.5,233 401.1,190 401.1,276 	"/>
	<polygon id="XMLID_13_" class="st0" points="343.8,333.4 236.2,333.4 236.2,132.6 343.8,132.6 343.8,190 372.4,190 372.4,103.9 
		372.4,103.9 207.5,103.9 207.5,362.1 372.4,362.1 372.4,276 343.8,276 	"/>
</g>
</svg>
