<?xml version="1.0" encoding="utf-8"?>
<!-- Generator: Adobe Illustrator 19.0.0, SVG Export Plug-In . SVG Version: 6.00 Build 0)  -->
<svg version="1.2" baseProfile="tiny" id="Layer_1" xmlns="http://www.w3.org/2000/svg" xmlns:xlink="http://www.w3.org/1999/xlink"
	 x="0px" y="0px" viewBox="0 0 600 465" xml:space="preserve">
<g>
	<path fill="#FFE3C2" d="M439.5,186v-69.8l-69.8-69.7H160.5V186L114,279v139.5h372V279L439.5,186z M160.5,238v41H140L160.5,238z
		 M346.5,348.8h-93L207,279h-23.3v-69.8V69.8h176.4l56.1,56.1v83.4V279H393L346.5,348.8z M439.5,279v-41l20.5,41H439.5z
		 M323.3,116.2H207V93h116.3V116.2z M262.4,162.8H207v-23.2h55.4V162.8z"/>
	<path fill="#995223" d="M360.1,69.8l56.1,56.1v83.4V279H393l-46.5,69.8h-93L207,279h-23.3h-23.3H140l20.5-41v-52L114,279v139.5h372
		V279l-46.5-93v-69.8l-69.8-69.7 M439.5,279v-41l20.5,41H439.5z"/>
</g>
</svg>
