<?xml version="1.0" encoding="utf-8"?>
<!-- Generator: Adobe Illustrator 19.0.0, SVG Export Plug-In . SVG Version: 6.00 Build 0)  -->
<svg version="1.2" baseProfile="tiny"
	 id="svg2" xmlns:dc="http://purl.org/dc/elements/1.1/" xmlns:rdf="http://www.w3.org/1999/02/22-rdf-syntax-ns#" xmlns:inkscape="http://www.inkscape.org/namespaces/inkscape" xmlns:cc="http://creativecommons.org/ns#" xmlns:svg="http://www.w3.org/2000/svg" xmlns:sodipodi="http://sodipodi.sourceforge.net/DTD/sodipodi-0.dtd" inkscape:version="0.48.5 r10040" sodipodi:docname="icon_broken_phone.svg" inkscape:export-filename="D:\workspaces\android_studio\commcare-odk\app\res\drawable\home_report.png" inkscape:export-xdpi="90" inkscape:export-ydpi="90"
	 xmlns="http://www.w3.org/2000/svg" xmlns:xlink="http://www.w3.org/1999/xlink" x="0px" y="0px" viewBox="0 -11 300 232"
	 xml:space="preserve">
<sodipodi:namedview  id="namedview10" gridtolerance="10" bordercolor="#666666" inkscape:pageshadow="2" inkscape:window-width="1920" inkscape:window-maximized="1" inkscape:current-layer="svg2" inkscape:window-height="1017" inkscape:window-x="-8" inkscape:pageopacity="0" inkscape:window-y="-8" objecttolerance="10" guidetolerance="10" pagecolor="#ffffff" showgrid="false" inkscape:zoom="1.3350176" inkscape:cx="167.50639" borderopacity="1" inkscape:cy="216.92533">
	</sodipodi:namedview>
<path id="path4" inkscape:connector-curvature="0" fill="#EFCFCB" d="M207.9,30.9l-74.8-18.4c-9.1-2.2-18.1,3.2-20.3,12.3l-33,134
	c-2.2,9.1,3.2,18.1,12.3,20.3l74.8,18.4c9.1,2.2,18.1-3.2,20.3-12.3l33-134C222.4,42.1,216.9,33.1,207.9,30.9L207.9,30.9z
	 M153.3,29.2l30.8,7.6c1.6,0.5,2.7,1.9,2.2,3.5s-2,2.5-3.6,2.1l-30.8-7.6c-1.6-0.5-2.7-1.9-2.2-3.5
	C150.2,29.7,151.9,28.9,153.3,29.2L153.3,29.2z M104.1,139.8l24-97.4c0.4-1.3,1.8-1.4,3-1.1l22.8,5.6L151,80.6l-6.4,8.7l6.2-5.4
	l-0.6,8.7l-5.4-2.9l-14.9-27.6l11.5,32.5l-0.2,9.1l-8.2,1.2l-4.4-1.3l-6.9-6.1l-0.5-0.4l-0.5,0.2l-7.3,6.3l7.4-4.4l6,7.6l0.1,0.2
	l0.4,0.1l1.4,0.6l-6.3,8.3l8.8-7.5l5.3,1.9l1.8,2.2l2.5,3.5l-8,8.4l-0.5,0.5l-0.1,0.6l-1.4,8.1l-12.6,10.6l-11.8-2.9
	C105.1,141,103.8,141.1,104.1,139.8L104.1,139.8z M146.6,141l5.6,11.6l-34-8.4l13.1-9.4l0.2-0.1l0.1-0.4l2.6-7.3l9.2-7.4l5.5-1.8
	l1.4,3.7l1.9-1.3l-1.2,7.1l-4.9,11.9l-0.4,0.7L146.6,141L146.6,141z M154.5,114.7l-3.5,1.6l-4.1-4.3l-3,3.6l-2.5-7.7l4.4-3l0.7-9.8
	l5.6,5.3l5-1.3l-0.2,6.7l4.2,1.4l-0.4,2.5l1.2,3.3l-4.9,5.6L154.5,114.7L154.5,114.7z M132.1,178.1c-3.4-1.3-5.5-4.7-5-8.3
	c0.6-4.8,5.6-7.8,10.2-6.2c3.4,1.3,5.5,4.7,5,8.3C141.7,176.8,136.7,179.6,132.1,178.1L132.1,178.1z M176.3,157.6
	c-0.4,1.3-1.3,0.7-2.5,0.4l-21.5-5.3l-3.3-12.2l5.7-11.3V129l0.1-0.4l2.5-8.4l9,8.9l0.4,0.2h0.2l13,3l-11.3-6.3l-5.8-8.1l3.4-9
	l24.9-12.7l-24.4,7.4l-3.6-1.3l2.9-6.9l9.2-1.1l-8.3-1.4l7.4-18l-13.2,21.9l0.1-2.9l-6.4,0.6l-0.9-47.4l44.7,11
	c1.3,0.4,2.1,1.1,1.8,2.2L176.3,157.6L176.3,157.6z"/>
</svg>
