<?xml version="1.0" encoding="UTF-8" standalone="no"?>
<svg
   xmlns:dc="http://purl.org/dc/elements/1.1/"
   xmlns:cc="http://creativecommons.org/ns#"
   xmlns:rdf="http://www.w3.org/1999/02/22-rdf-syntax-ns#"
   xmlns:svg="http://www.w3.org/2000/svg"
   xmlns="http://www.w3.org/2000/svg"
   xmlns:sodipodi="http://sodipodi.sourceforge.net/DTD/sodipodi-0.dtd"
   xmlns:inkscape="http://www.inkscape.org/namespaces/inkscape"
   version="1.1"
   x="0px"
   y="0px"
   viewBox="0 0 90 90"
   enable-background="new 0 0 100 100"
   xml:space="preserve"
   id="svg4235"
   inkscape:version="0.91 r13725"
   sodipodi:docname="noun_91726_cc.svg"
   width="90"
   height="90"><metadata
     id="metadata4247"><rdf:RDF><cc:Work
         rdf:about=""><dc:format>image/svg+xml</dc:format><dc:type
           rdf:resource="http://purl.org/dc/dcmitype/StillImage" /><dc:title></dc:title></cc:Work></rdf:RDF></metadata><defs
     id="defs4245" /><sodipodi:namedview
     pagecolor="#ffffff"
     bordercolor="#666666"
     borderopacity="1"
     objecttolerance="10"
     gridtolerance="10"
     guidetolerance="10"
     inkscape:pageopacity="0"
     inkscape:pageshadow="2"
     inkscape:window-width="699"
     inkscape:window-height="480"
     id="namedview4243"
     showgrid="false"
     fit-margin-top="0"
     fit-margin-left="0"
     fit-margin-right="0"
     fit-margin-bottom="0"
     inkscape:zoom="1.888"
     inkscape:cx="46.177966"
     inkscape:cy="31.5"
     inkscape:window-x="695"
     inkscape:window-y="346"
     inkscape:window-maximized="0"
     inkscape:current-layer="svg4235" /><path
     d="M 45,0 C 20.1,0 0,20.1 0,45 0,69.9 20.1,90 45,90 69.9,90 90,69.9 90,45 90,20.1 69.9,0 45,0 Z m 5.2,65.6 -10.4,0 0,-25.6 10.3,0 0,25.6 z M 45,35.7 c -3.1,0 -5.7,-2.5 -5.7,-5.7 0,-3.1 2.5,-5.7 5.7,-5.7 3.1,0 5.7,2.5 5.7,5.7 0,3.2 -2.6,5.7 -5.7,5.7 z"
     id="path4237"
     inkscape:connector-curvature="0" /></svg>