<?xml version="1.0" encoding="utf-8"?>
<!-- Generator: Adobe Illustrator 19.0.0, SVG Export Plug-In . SVG Version: 6.00 Build 0)  -->
<svg version="1.2" baseProfile="tiny"
	 id="svg2" xmlns:dc="http://purl.org/dc/elements/1.1/" xmlns:rdf="http://www.w3.org/1999/02/22-rdf-syntax-ns#" xmlns:cc="http://creativecommons.org/ns#" xmlns:inkscape="http://www.inkscape.org/namespaces/inkscape" xmlns:sodipodi="http://sodipodi.sourceforge.net/DTD/sodipodi-0.dtd" xmlns:svg="http://www.w3.org/2000/svg" inkscape:export-ydpi="90" inkscape:export-xdpi="90" inkscape:export-filename="D:\workspaces\android_studio\commcare-odk\app\res\drawable\home_report.png" sodipodi:docname="icon_broken_phone.svg" inkscape:version="0.48.5 r10040"
	 xmlns="http://www.w3.org/2000/svg" xmlns:xlink="http://www.w3.org/1999/xlink" x="0px" y="0px" viewBox="0 0 300 210"
	 xml:space="preserve">
<sodipodi:namedview  id="namedview10" inkscape:current-layer="svg2" inkscape:window-maximized="1" inkscape:window-y="-8" inkscape:window-x="-8" inkscape:window-height="1017" inkscape:window-width="1920" inkscape:pageshadow="2" inkscape:pageopacity="0" bordercolor="#666666" gridtolerance="10" guidetolerance="10" objecttolerance="10" borderopacity="1" inkscape:cx="167.50639" inkscape:cy="216.92533" inkscape:zoom="1.3350176" showgrid="false" pagecolor="#ffffff">
	</sodipodi:namedview>
<path id="path4" inkscape:connector-curvature="0" fill="#EFCFCB" d="M201.9,42.3l-64-15.7c-7.8-1.9-15.5,2.7-17.4,10.5L92.3,151.7
	c-1.9,7.8,2.7,15.5,10.5,17.4l64,15.7c7.8,1.9,15.5-2.7,17.4-10.5l28.2-114.6C214.3,51.9,209.6,44.2,201.9,42.3L201.9,42.3z
	 M155.2,40.9l26.3,6.5c1.4,0.4,2.3,1.6,1.9,3c-0.4,1.4-1.7,2.1-3.1,1.8l-26.3-6.5c-1.4-0.4-2.3-1.6-1.9-3
	C152.6,41.3,154,40.6,155.2,40.9L155.2,40.9z M113.1,135.5l20.5-83.3c0.3-1.1,1.5-1.2,2.6-0.9l19.5,4.8l-2.5,28.8l-5.5,7.4l5.3-4.6
	l-0.5,7.4l-4.6-2.5L135.2,69l9.8,27.8l-0.2,7.8l-7,1l-3.8-1.1l-5.9-5.2l-0.4-0.3l-0.4,0.2l-6.2,5.4l6.3-3.8l5.1,6.5l0.1,0.2l0.3,0.1
	l1.2,0.5l-5.4,7.1l7.5-6.4l4.5,1.6l1.5,1.9l2.1,3l-6.8,7.2l-0.4,0.4l-0.1,0.5l-1.2,6.9l-10.6,9l-10.1-2.5
	C114,136.5,112.9,136.6,113.1,135.5L113.1,135.5z M149.5,136.5l4.8,9.9l-29.1-7.2l11.2-8l0.2-0.1l0.1-0.3l2.2-6.2l7.9-6.3l4.7-1.5
	l1.2,3.2l1.6-1.1l-1,6.1l-4.2,10.2l-0.3,0.6L149.5,136.5L149.5,136.5z M156.2,114l-3,1.4l-3.5-3.7l-2.6,3.1l-2.1-6.6l3.8-2.6
	l0.6-8.4l4.8,4.5l4.3-1.1l-0.2,5.7l3.6,1.2l-0.3,2.1l1,2.8l-4.2,4.8L156.2,114L156.2,114z M137.1,168.2c-2.9-1.1-4.7-4-4.3-7.1
	c0.5-4.1,4.8-6.7,8.7-5.3c2.9,1.1,4.7,4,4.3,7.1C145.3,167.1,141,169.5,137.1,168.2L137.1,168.2z M174.9,150.7
	c-0.3,1.1-1.1,0.6-2.1,0.3l-18.4-4.5l-2.8-10.4l4.9-9.7l0-0.2l0.1-0.3l2.1-7.2l7.7,7.6l0.3,0.2l0.2,0l11.1,2.6l-9.7-5.4l-5-6.9
	l2.9-7.7l21.3-10.9l-20.9,6.3l-3.1-1.1l2.5-5.9l7.9-0.9l-7.1-1.2l6.3-15.4l-11.3,18.7l0.1-2.5l-5.5,0.5l-0.8-40.5l38.2,9.4
	c1.1,0.3,1.8,0.9,1.5,1.9L174.9,150.7L174.9,150.7z"/>
</svg>
