<?xml version="1.0" encoding="UTF-8" standalone="no"?>
<svg
   xmlns:dc="http://purl.org/dc/elements/1.1/"
   xmlns:cc="http://creativecommons.org/ns#"
   xmlns:rdf="http://www.w3.org/1999/02/22-rdf-syntax-ns#"
   xmlns:svg="http://www.w3.org/2000/svg"
   xmlns="http://www.w3.org/2000/svg"
   xmlns:sodipodi="http://sodipodi.sourceforge.net/DTD/sodipodi-0.dtd"
   xmlns:inkscape="http://www.inkscape.org/namespaces/inkscape"
   version="1.1"
   x="0px"
   y="0px"
   viewBox="0 0 600 465"
   enable-background="new 0 0 100 100"
   xml:space="preserve"
   id="svg2"
   inkscape:version="0.48.5 r10040"
   width="100%"
   height="100%"
   sodipodi:docname="icon_broken_phone.svg"
   inkscape:export-filename="D:\workspaces\android_studio\commcare-odk\app\res\drawable\home_report.png"
   inkscape:export-xdpi="90"
   inkscape:export-ydpi="90"><metadata
     id="metadata14"><rdf:RDF><cc:Work
         rdf:about=""><dc:format>image/svg+xml</dc:format><dc:type
           rdf:resource="http://purl.org/dc/dcmitype/StillImage" /><dc:title></dc:title></cc:Work></rdf:RDF></metadata><defs
     id="defs12" /><sodipodi:namedview
     pagecolor="#ffffff"
     bordercolor="#666666"
     borderopacity="1"
     objecttolerance="10"
     gridtolerance="10"
     guidetolerance="10"
     inkscape:pageopacity="0"
     inkscape:pageshadow="2"
     inkscape:window-width="1920"
     inkscape:window-height="1017"
     id="namedview10"
     showgrid="false"
     inkscape:zoom="1.3350176"
     inkscape:cx="167.50639"
     inkscape:cy="216.92533"
     inkscape:window-x="-8"
     inkscape:window-y="-8"
     inkscape:window-maximized="1"
     inkscape:current-layer="svg2" /><path
     inkscape:connector-curvature="0"
     d="M 414.89373,93.677248 273.27656,58.80571 c -17.17634,-4.22947 -34.21361,6.075183 -38.44307,23.251522 L 172.34091,335.8464 c -4.22945,17.17634 6.0752,34.21361 23.25153,38.44308 l 141.61717,34.87154 c 17.17634,4.22946 34.2136,-6.07518 38.44307,-23.25152 l 62.49257,-253.78917 c 4.22946,-17.17634 -6.07519,-34.213612 -23.25152,-38.443082 z M 311.56427,90.541106 369.7535,104.86951 c 3.15485,0.77684 5.09071,3.48428 4.31388,6.63912 -0.77685,3.15483 -3.74851,4.65385 -6.90335,3.877 l -58.18923,-14.3284 c -3.15483,-0.77684 -5.09071,-3.484274 -4.31386,-6.639111 1.12737,-3.068523 4.09904,-4.567539 6.90333,-3.877013 z M 218.35676,299.95969 263.75882,115.57697 c 0.6042,-2.45377 3.23061,-2.55063 5.68437,-1.94643 l 43.11612,10.61683 -5.64074,63.67459 -12.20024,16.32901 11.78449,-10.11093 -1.07992,16.46472 -10.17613,-5.48009 -28.02861,-52.26031 21.66955,61.47643 -0.55146,17.33842 -15.40256,2.15597 -8.32658,-2.42212 -13.17416,-11.42339 -0.96531,-0.60949 -0.8737,0.52846 -13.70454,11.86887 13.97931,-8.4551 11.34571,14.31929 0.26423,0.43686 0.70106,0.17263 2.71799,1.04106 -12.02761,15.62794 16.49829,-14.1553 9.90664,3.55477 3.42961,4.19062 4.6644,6.72543 -15.09086,15.98902 -0.96002,0.87897 -0.25894,1.05164 -2.65997,15.33205 -23.48266,19.8713 -22.43441,-5.52421 c -2.10322,-0.51788 -4.72962,-0.42101 -4.12541,-2.87479 z m 80.47402,2.34156 10.58471,21.93953 -64.49891,-15.88209 24.80377,-17.68704 0.43686,-0.26423 0.17263,-0.70105 4.85478,-13.67626 17.54988,-13.89634 10.49503,-3.36438 2.73908,6.99492 3.58115,-2.46431 -2.22838,13.57936 -9.28854,22.62287 -0.69579,1.31583 1.49373,1.48319 z m 14.88323,-49.87319 -6.7307,3.17595 -7.64661,-8.20336 -5.75486,6.76235 -4.60446,-14.51829 8.47284,-5.7213 1.24727,-18.65425 10.54249,10.03181 9.535,-2.48542 -0.48098,12.52249 7.88975,2.68633 -0.77157,4.6433 2.21063,6.12122 -9.33071,10.71513 -4.57809,-7.07596 z M 271.49892,372.532 c -6.48758,-2.34107 -10.45091,-8.89387 -9.51198,-15.72671 1.10628,-9.02238 10.71705,-14.83527 19.22154,-11.62577 6.48758,2.34108 10.45091,8.89388 9.51199,15.72672 -1.10628,9.02239 -10.63073,14.48473 -19.22155,11.62576 z m 83.56749,-38.90918 c -0.60422,2.45376 -2.53481,1.23479 -4.63803,0.71691 l -40.66236,-10.01263 -6.21089,-23.09328 10.86858,-21.49021 0.0863,-0.35054 0.17263,-0.70107 4.67161,-15.9521 17.04589,16.83828 0.61476,0.52316 0.35054,0.0863 24.62394,5.69155 -21.58179,-12.0065 -11.08677,-15.37091 6.41901,-17.00899 47.19598,-24.07056 -46.18129,13.91025 -6.83812,-2.42739 5.46954,-13.15306 17.59209,-1.98862 -15.6826,-2.74627 13.97595,-34.10957 -25.06992,41.41618 0.24313,-5.517 -12.16667,1.09379 -1.71863,-89.6532 84.47955,20.80208 c 2.45375,0.60421 3.9475,2.08741 3.4296,4.19063 l -45.40205,184.38274 z"
     id="path4"
     style="fill:#efcfcb;fill-opacity:1" /></svg>