<?xml version="1.0" encoding="utf-8"?>
<!-- Generator: Adobe Illustrator 16.0.4, SVG Export Plug-In . SVG Version: 6.00 Build 0)  -->
<!DOCTYPE svg PUBLIC "-//W3C//DTD SVG 1.1//EN" "http://www.w3.org/Graphics/SVG/1.1/DTD/svg11.dtd">
<svg version="1.1" id="Layer_1" xmlns="http://www.w3.org/2000/svg" xmlns:xlink="http://www.w3.org/1999/xlink" x="0px" y="0px"
	 width="619.354px" height="611.828px" viewBox="0 0 619.354 611.828" enable-background="new 0 0 619.354 611.828"
	 xml:space="preserve">
<path fill="#E53E30" d="M454.379,341.893l-45.94,45.945l-45.946-45.945l-19.547,19.547l45.94,45.945l-45.94,45.939l19.547,19.553
	l45.946-45.945l45.94,45.945l19.547-19.553l-45.94-45.939l45.94-45.945L454.379,341.893L454.379,341.893z M576.195,407.385
	c0,92.65-75.108,167.76-167.76,167.76s-167.76-75.109-167.76-167.76c0-92.65,75.108-167.759,167.76-167.759
	S576.195,314.735,576.195,407.385z"/>
<path fill="#E53E30" d="M80.202,393.559V79.151h314.408v125.03c4.518-0.298,9.062-0.503,13.652-0.503
	c4.711,0,9.367,0.215,13.995,0.531V51.503H52.554v369.704h152.341c-0.299-4.518-0.509-9.062-0.509-13.658
	c0-4.705,0.221-9.361,0.536-13.99H80.202L80.202,393.559z"/>
<rect x="113.212" y="125.58" fill="#E53E30" width="248.387" height="27.162"/>
<rect x="113.211" y="176.946" fill="#E53E30" width="248.388" height="27.162"/>
</svg>
