<?xml version="1.0" encoding="utf-8"?>
<!-- Generator: Adobe Illustrator 19.0.0, SVG Export Plug-In . SVG Version: 6.00 Build 0)  -->
<svg version="1.2" baseProfile="tiny" id="Layer_1" xmlns="http://www.w3.org/2000/svg" xmlns:xlink="http://www.w3.org/1999/xlink"
	 x="0px" y="0px" viewBox="6 163.5 600 465" xml:space="preserve">
<g id="XMLID_2_">
	<path id="XMLID_30_" fill="#BFDDF4" d="M268.9,358.9v-74.3V266h-74.3H176v18.6v55.7v18.6h74.3L268.9,358.9L268.9,358.9z
		 M194.6,340.3v-55.7h55.7v55.7H194.6z"/>
	<rect id="XMLID_29_" x="213.1" y="303.1" fill="#BFDDF4" width="18.6" height="18.6"/>
	<polygon id="XMLID_28_" fill="#BFDDF4" points="324.6,303.1 306,303.1 306,284.6 324.6,284.6 324.6,266 306,266 287.4,266 
		287.4,284.6 287.4,321.7 306,321.7 306,340.3 324.6,340.3 	"/>
	<polygon id="XMLID_27_" fill="#BFDDF4" points="306,396 324.6,396 324.6,358.9 306,358.9 306,340.3 287.4,340.3 287.4,377.4 
		306,377.4 	"/>
	<path id="XMLID_24_" fill="#BFDDF4" d="M361.7,266h-18.6v92.9h18.6h55.7H436v-74.3V266H361.7z M417.4,340.3h-55.7v-55.7h55.7V340.3
		L417.4,340.3z"/>
	<rect id="XMLID_23_" x="380.3" y="303.1" fill="#BFDDF4" width="18.6" height="18.6"/>
	<polygon id="XMLID_22_" fill="#BFDDF4" points="176,377.4 176,396 176,414.6 194.6,414.6 194.6,396 213.1,396 213.1,377.4 	"/>
	<polygon id="XMLID_21_" fill="#BFDDF4" points="324.6,433.1 324.6,414.6 306,414.6 306,396 287.4,396 287.4,377.4 231.7,377.4 
		231.7,396 213.1,396 213.1,414.6 250.3,414.6 250.3,396 268.9,396 268.9,414.6 287.4,414.6 287.4,433.1 306,433.1 306,451.7 
		324.6,451.7 	"/>
	<polygon id="XMLID_20_" fill="#BFDDF4" points="343.1,488.9 361.7,488.9 361.7,470.3 343.1,470.3 343.1,451.7 324.6,451.7 
		324.6,470.3 306,470.3 306,451.7 287.4,451.7 287.4,488.9 306,488.9 306,507.4 324.6,507.4 324.6,488.9 	"/>
	<rect id="XMLID_19_" x="361.7" y="451.7" fill="#BFDDF4" width="18.6" height="18.6"/>
	<rect id="XMLID_18_" x="343.1" y="433.1" fill="#BFDDF4" width="18.6" height="18.6"/>
	<polygon id="XMLID_17_" fill="#BFDDF4" points="343.1,414.6 361.7,414.6 361.7,433.1 380.3,433.1 380.3,451.7 398.9,451.7 
		398.9,414.6 380.3,414.6 380.3,396 361.7,396 361.7,377.4 343.1,377.4 343.1,396 324.6,396 324.6,414.6 	"/>
	<rect id="XMLID_16_" x="417.4" y="414.6" fill="#BFDDF4" width="18.6" height="37.1"/>
	<rect id="XMLID_15_" x="380.3" y="377.4" fill="#BFDDF4" width="18.6" height="18.6"/>
	<rect id="XMLID_14_" x="398.9" y="396" fill="#BFDDF4" width="18.6" height="18.6"/>
	<rect id="XMLID_13_" x="417.4" y="377.4" fill="#BFDDF4" width="18.6" height="18.6"/>
	<rect id="XMLID_12_" x="398.9" y="451.7" fill="#BFDDF4" width="18.6" height="18.6"/>
	<rect id="XMLID_11_" x="417.4" y="470.3" fill="#BFDDF4" width="18.6" height="18.6"/>
	<rect id="XMLID_10_" x="417.4" y="507.4" fill="#BFDDF4" width="18.6" height="18.6"/>
	<polygon id="XMLID_9_" fill="#BFDDF4" points="380.3,488.9 361.7,488.9 361.7,507.4 380.3,507.4 380.3,526 398.9,526 398.9,470.3 
		380.3,470.3 	"/>
	<rect id="XMLID_8_" x="324.6" y="507.4" fill="#BFDDF4" width="37.1" height="18.6"/>
	<rect id="XMLID_7_" x="287.4" y="507.4" fill="#BFDDF4" width="18.6" height="18.6"/>
	<path id="XMLID_4_" fill="#BFDDF4" d="M176,451.7V526h18.6h74.3v-18.6v-55.7v-18.6H176V451.7z M250.3,451.7v55.7h-55.7v-55.7H250.3
		z"/>
	<rect id="XMLID_3_" x="213.1" y="470.3" fill="#BFDDF4" width="18.6" height="18.6"/>
</g>
</svg>
