<?xml version="1.0" encoding="utf-8"?>
<!-- Generator: Adobe Illustrator 19.0.0, SVG Export Plug-In . SVG Version: 6.00 Build 0)  -->
<svg version="1.2" baseProfile="tiny" id="Layer_1" xmlns="http://www.w3.org/2000/svg" xmlns:xlink="http://www.w3.org/1999/xlink"
	 x="0px" y="0px" viewBox="0 0 300 232.5" xml:space="preserve">
<g id="XMLID_2_">
	<path id="XMLID_30_" fill="#C0DEF4" d="M131.4,96.9V59.8v-9.3H94.3H85v9.3v27.9V97h37.2L131.4,96.9L131.4,96.9z M94.3,87.6V59.8
		h27.8v27.9H94.3z"/>
	<rect id="XMLID_29_" x="103.6" y="69.1" fill="#C0DEF4" width="9.3" height="9.3"/>
	<polygon id="XMLID_28_" fill="#C0DEF4" points="159.3,69.1 150,69.1 150,59.8 159.3,59.8 159.3,50.5 150,50.5 140.7,50.5 
		140.7,59.8 140.7,78.4 150,78.4 150,87.6 159.3,87.6 	"/>
	<polygon id="XMLID_27_" fill="#C0DEF4" points="150,115.5 159.3,115.5 159.3,96.9 150,96.9 150,87.6 140.7,87.6 140.7,106.2 
		150,106.2 	"/>
	<path id="XMLID_24_" fill="#C0DEF4" d="M177.9,50.5h-9.3v46.4h9.3h27.9h9.3V59.8v-9.3H177.9z M205.7,87.6h-27.9V59.8h27.9V87.6
		L205.7,87.6z"/>
	<rect id="XMLID_23_" x="187.1" y="69.1" fill="#C0DEF4" width="9.3" height="9.3"/>
	<polygon id="XMLID_22_" fill="#C0DEF4" points="85,106.2 85,115.5 85,124.8 94.3,124.8 94.3,115.5 103.6,115.5 103.6,106.2 	"/>
	<polygon id="XMLID_21_" fill="#C0DEF4" points="159.3,134.1 159.3,124.8 150,124.8 150,115.5 140.7,115.5 140.7,106.2 112.8,106.2 
		112.8,115.5 103.6,115.5 103.6,124.8 122.2,124.8 122.2,115.5 131.4,115.5 131.4,124.8 140.7,124.8 140.7,134.1 150,134.1 
		150,143.4 159.3,143.4 	"/>
	<polygon id="XMLID_20_" fill="#C0DEF4" points="168.6,161.9 177.9,161.9 177.9,152.6 168.6,152.6 168.6,143.4 159.3,143.4 
		159.3,152.6 150,152.6 150,143.4 140.7,143.4 140.7,161.9 150,161.9 150,171.2 159.3,171.2 159.3,161.9 	"/>
	<rect id="XMLID_19_" x="177.9" y="143.4" fill="#C0DEF4" width="9.3" height="9.3"/>
	<rect id="XMLID_18_" x="168.6" y="134.1" fill="#C0DEF4" width="9.3" height="9.3"/>
	<polygon id="XMLID_17_" fill="#C0DEF4" points="168.6,124.8 177.9,124.8 177.9,134.1 187.1,134.1 187.1,143.4 196.4,143.4 
		196.4,124.8 187.1,124.8 187.1,115.5 177.9,115.5 177.9,106.2 168.6,106.2 168.6,115.5 159.3,115.5 159.3,124.8 	"/>
	<rect id="XMLID_16_" x="205.7" y="124.8" fill="#C0DEF4" width="9.3" height="18.6"/>
	<rect id="XMLID_15_" x="187.1" y="106.2" fill="#C0DEF4" width="9.3" height="9.3"/>
	<rect id="XMLID_14_" x="196.4" y="115.5" fill="#C0DEF4" width="9.3" height="9.3"/>
	<rect id="XMLID_13_" x="205.7" y="106.2" fill="#C0DEF4" width="9.3" height="9.3"/>
	<rect id="XMLID_12_" x="196.4" y="143.4" fill="#C0DEF4" width="9.3" height="9.3"/>
	<rect id="XMLID_11_" x="205.7" y="152.6" fill="#C0DEF4" width="9.3" height="9.3"/>
	<rect id="XMLID_10_" x="205.7" y="171.2" fill="#C0DEF4" width="9.3" height="9.3"/>
	<polygon id="XMLID_9_" fill="#C0DEF4" points="187.1,161.9 177.9,161.9 177.9,171.2 187.1,171.2 187.1,180.5 196.4,180.5 
		196.4,152.6 187.1,152.6 	"/>
	<rect id="XMLID_8_" x="159.3" y="171.2" fill="#C0DEF4" width="18.6" height="9.3"/>
	<rect id="XMLID_7_" x="140.7" y="171.2" fill="#C0DEF4" width="9.3" height="9.3"/>
	<path id="XMLID_4_" fill="#C0DEF4" d="M85,143.4v37.1h9.3h37.2v-9.3v-27.9V134H85V143.4z M122.2,143.4v27.9H94.3v-27.9H122.2z"/>
	<rect id="XMLID_3_" x="103.6" y="152.6" fill="#C0DEF4" width="9.3" height="9.3"/>
</g>
</svg>
