<?xml version="1.0" encoding="utf-8"?>
<!-- Generator: Adobe Illustrator 19.0.0, SVG Export Plug-In . SVG Version: 6.00 Build 0)  -->
<svg version="1.2" baseProfile="tiny" id="Layer_1" xmlns="http://www.w3.org/2000/svg" xmlns:xlink="http://www.w3.org/1999/xlink"
	 x="0px" y="0px" viewBox="6 163.5 600 465" xml:space="preserve">
<g id="XMLID_33_">
	<path id="XMLID_36_" fill="#CFEBEF" d="M311,440.8l-116.3-45.2L175.9,348l23.6-60.8l44.4-16.1l114.9,44.6l19.8,41.1L355,417.6
		L311,440.8z M211.2,379.9l98.3,38.2l32.5-14.3l17.1-44l-15.3-27.7l-99.7-38.8l-28.8,10.6l-17.1,44L211.2,379.9z"/>
	<path id="XMLID_34_" fill="#04799A" d="M258.3,420.3l-2.9,7.5l10.5,32.3l98.3,38.2l32-15.8l17.1-44l-14.8-26.2l-99.7-38.8
		l-26.2,10.3l-6.7,17.4l-22.4-8.7l10.3-26.5l46.2-17.8l114.9,44.6l21.2,44l-23.6,60.8l-46.8,23.3l-116.3-45.2l-19.3-49l5.9-15.1
		L258.3,420.3z"/>
</g>
</svg>
