<?xml version="1.0" encoding="UTF-8" standalone="no"?>
<!-- Created with Inkscape (http://www.inkscape.org/) -->

<svg
   xmlns:dc="http://purl.org/dc/elements/1.1/"
   xmlns:cc="http://creativecommons.org/ns#"
   xmlns:rdf="http://www.w3.org/1999/02/22-rdf-syntax-ns#"
   xmlns:svg="http://www.w3.org/2000/svg"
   xmlns="http://www.w3.org/2000/svg"
   xmlns:sodipodi="http://sodipodi.sourceforge.net/DTD/sodipodi-0.dtd"
   xmlns:inkscape="http://www.inkscape.org/namespaces/inkscape"
   version="1.2"
   width="100%"
   height="100%"
   viewBox="0 0 300 232.5"
   id="Layer_1"
   xml:space="preserve"
   inkscape:version="0.48.5 r10040"
   sodipodi:docname="startup_micronode.svg"><sodipodi:namedview
   pagecolor="#ffffff"
   bordercolor="#666666"
   borderopacity="1"
   objecttolerance="10"
   gridtolerance="10"
   guidetolerance="10"
   inkscape:pageopacity="0"
   inkscape:pageshadow="2"
   inkscape:window-width="1920"
   inkscape:window-height="1017"
   id="namedview17"
   showgrid="false"
   inkscape:zoom="0.95333333"
   inkscape:cx="150"
   inkscape:cy="116.25"
   inkscape:window-x="-8"
   inkscape:window-y="-8"
   inkscape:window-maximized="1"
   inkscape:current-layer="Layer_1" /><metadata
   id="metadata32"><rdf:RDF><cc:Work
       rdf:about=""><dc:format>image/svg+xml</dc:format><dc:type
         rdf:resource="http://purl.org/dc/dcmitype/StillImage" /><dc:title /></cc:Work></rdf:RDF></metadata><defs
   id="defs30">
	
	
	
	
	
	
	
	
	
	
	
	
	
	
	
	
	
	
	
	
	
	
	
	
</defs>

<polygon
   points="39.619,33.576 59.954,44.364 61.853,78.57 39.619,71.729 "
   transform="matrix(2.0575711,0,0,2.0575711,59.746057,14.486245)"
   id="polygon4"
   style="fill:#d9d8d5;fill-opacity:1" /><polygon
   points="37.908,73.176 37.908,35.58 31.856,33.576 31.856,75.521 60.799,83.043 60.569,79.542 "
   transform="matrix(2.0575711,0,0,2.0575711,59.746057,14.486245)"
   id="polygon6"
   style="fill:#d9d8d5;fill-opacity:1" /><rect
   width="4.059588"
   height="46.830318"
   x="138.8288"
   y="33.494099"
   id="rect8"
   style="fill:#d9d8d5;fill-opacity:1" /><rect
   width="4.059588"
   height="46.830318"
   x="169.68826"
   y="46.757202"
   id="rect10"
   style="fill:#d9d8d5;fill-opacity:1" /><g
   transform="matrix(2.0575711,0,0,2.0575711,59.746057,14.486245)"
   id="g12"
   style="fill:#d9d8d5;fill-opacity:1"><path
     d="m 63.948,53.771 2.421,2.422 c 1.729,-2.232 2.674,-4.947 2.68,-7.807 0.009,-2.893 -0.947,-5.633 -2.703,-7.868 l -2.379,2.378 c 0.952,1.587 1.509,3.437 1.509,5.423 0,1.998 -0.565,3.859 -1.528,5.452 z"
     id="path14"
     style="fill:#d9d8d5;fill-opacity:1" /><path
     d="m 79.44,27.422 -2.781,2.781 c 9.193,10.274 9.186,25.936 0.004,36.283 l 2.846,2.845 C 90.152,58.273 90.131,38.441 79.44,27.422 z"
     id="path16"
     style="fill:#d9d8d5;fill-opacity:1" /><path
     d="m 72.942,33.92 -2.872,2.873 c 5.602,6.642 5.604,16.432 0.025,23.126 l 2.849,2.849 C 80.091,54.479 80.1,42.14 72.942,33.92 z"
     id="path18"
     style="fill:#d9d8d5;fill-opacity:1" /></g><g
   transform="matrix(2.0575711,0,0,2.0575711,59.746057,14.486245)"
   id="g20"
   style="fill:#d9d8d5;fill-opacity:1"><path
     d="m 26.168,53.771 -2.421,2.422 c -1.728,-2.232 -2.673,-4.947 -2.679,-7.807 -0.009,-2.893 0.947,-5.633 2.703,-7.868 l 2.379,2.378 c -0.952,1.587 -1.509,3.437 -1.508,5.423 -0.001,1.998 0.563,3.859 1.526,5.452 z"
     id="path22"
     style="fill:#d9d8d5;fill-opacity:1" /><path
     d="m 10.675,27.422 2.781,2.781 C 4.263,40.477 4.27,56.139 13.452,66.486 l -2.845,2.845 C -0.037,58.273 -0.015,38.441 10.675,27.422 z"
     id="path24"
     style="fill:#d9d8d5;fill-opacity:1" /><path
     d="m 17.174,33.92 2.872,2.873 c -5.602,6.642 -5.605,16.432 -0.025,23.126 l -2.849,2.849 C 10.025,54.479 10.016,42.14 17.174,33.92 z"
     id="path26"
     style="fill:#d9d8d5;fill-opacity:1" /></g></svg>