<?xml version="1.0" encoding="utf-8"?>
<!-- Generator: Adobe Illustrator 19.0.0, SVG Export Plug-In . SVG Version: 6.00 Build 0)  -->
<svg version="1.2" baseProfile="tiny" id="Layer_1" xmlns="http://www.w3.org/2000/svg" xmlns:xlink="http://www.w3.org/1999/xlink"
	 x="0px" y="0px" viewBox="0 0 300 232.5" xml:space="preserve">
<g id="XMLID_33_">
	<path id="XMLID_36_" fill="#CFEBEF" d="M152.5,138.6l-58.1-22.6L85,92.3l11.8-30.4l22.2-8l57.4,22.3l9.9,20.5L174.5,127
		L152.5,138.6z M102.6,108.2l49.1,19.1l16.2-7.1l8.5-22l-7.6-13.8l-49.8-19.4l-14.4,5.3l-8.5,22L102.6,108.2z"/>
	<path id="XMLID_34_" fill="#0A799A" d="M126.2,128.4l-1.4,3.7l5.2,16.1l49.1,19.1l16-7.9l8.5-22l-7.4-13.1L146.4,105l-13.1,5.1
		l-3.3,8.7l-11.2-4.3l5.1-13.2l23.1-8.9l57.4,22.3l10.6,22L203.2,167l-23.4,11.6l-58.1-22.6l-9.6-24.5l2.9-7.5L126.2,128.4z"/>
</g>
</svg>
