<svg xmlns="http://www.w3.org/2000/svg" xmlns:xlink="http://www.w3.org/1999/xlink" version="1.1" x="0px" y="0px" viewBox="0 0 38 40" style="enable-background:new 0 0 38 40;" xml:space="preserve"><style type="text/css">
	.st0{fill:none;}
	.st1{enable-background:new    ;}
	.st2{fill:#EE4630;}
	.st3{fill:#EE4630;stroke:#EE4630;stroke-width:3;stroke-linecap:round;stroke-linejoin:round;stroke-miterlimit:10;}
	.st4{fill:none;stroke:#EE4630;stroke-width:3;stroke-linecap:round;stroke-linejoin:round;stroke-miterlimit:10;}
	.st5{fill:none;stroke:#828282;stroke-width:2;stroke-linecap:round;stroke-linejoin:round;stroke-miterlimit:10;}
	.st6{fill:#828282;}
	.st7{fill:none;stroke:#828282;stroke-width:3;stroke-linecap:round;stroke-linejoin:round;stroke-miterlimit:10;}
	.st8{fill:#EE4630;stroke:#EE4630;stroke-width:2;stroke-linecap:round;stroke-linejoin:round;stroke-miterlimit:10;}
	.st9{fill:none;stroke:#EE4630;stroke-width:2;stroke-linecap:round;stroke-linejoin:round;stroke-miterlimit:10;}
	.st10{fill:none;stroke:#000000;stroke-width:2;stroke-linecap:round;stroke-linejoin:round;stroke-miterlimit:10;}
	.st11{stroke:#000000;stroke-width:2;stroke-linecap:round;stroke-linejoin:round;stroke-miterlimit:10;}
	.st12{fill:none;stroke:#000000;stroke-width:2;stroke-miterlimit:10;}
	.st13{opacity:0.15;}
</style><path d="M34.6,39c-0.9,0-1.8-0.4-2.4-1l-8-8C18,33.9,9.9,33,4.6,27.8c-3-2.9-4.6-6.8-4.6-11c0-4.2,1.6-8.2,4.6-11.2  c2.9-3,6.8-4.6,11-4.6c4.2,0,8.2,1.6,11.2,4.6c0,0,0,0,0,0C32,10.9,32.9,19,29,25.1l8,8c0.6,0.6,1,1.5,1,2.4c0,0.9-0.4,1.7-1,2.4  C36.4,38.6,35.6,39,34.6,39C34.7,39,34.6,39,34.6,39z M24.3,27.7c0.3,0,0.5,0.1,0.7,0.3l8.6,8.6c0.3,0.3,0.7,0.5,1,0.4  c0.4,0,0.7-0.2,0.9-0.4c0.3-0.3,0.4-0.7,0.4-1.1c0-0.3-0.1-0.6-0.4-0.9L27,26c-0.3-0.3-0.4-0.9-0.1-1.3c3.9-5.4,3.2-12.9-1.5-17.7  c-2.6-2.6-6-4-9.7-4c0,0,0,0,0,0C12,3,8.6,4.4,6,7c-2.6,2.6-4,6.1-4,9.7c0,3.6,1.4,7,4,9.6c4.8,4.8,12.2,5.4,17.7,1.5  C23.9,27.7,24.1,27.7,24.3,27.7z"></path><path d="M15.7,28.6c-6.6,0-11.9-5.3-11.9-11.9S9.1,4.8,15.7,4.8s11.9,5.3,11.9,11.9S22.2,28.6,15.7,28.6z M15.7,6.8  c-5.5,0-9.9,4.4-9.9,9.9s4.4,9.9,9.9,9.9s9.9-4.4,9.9-9.9S21.1,6.8,15.7,6.8z"></path></svg>