<svg xmlns="http://www.w3.org/2000/svg" xmlns:xlink="http://www.w3.org/1999/xlink" version="1.1" x="0px" y="0px" viewBox="-489 491 100 100" enable-background="new -489 491 100 100" xml:space="preserve"><path d="M-410.9,575.4c-1.8,0-3.1-1.4-3.1-3.1s1.4-3.1,3.1-3.1s3.1,1.4,3.1,3.1S-409.1,575.4-410.9,575.4z M-467.1,575.4  c-1.8,0-3.1-1.4-3.1-3.1s1.4-3.1,3.1-3.1s3.1,1.4,3.1,3.1S-465.4,575.4-467.1,575.4z M-439,525.4v9.4h-15.6c-3.1,0-3.1,0-3.1,3.1  v6.2c0,3.1,0,3.1,3.1,3.1h15.6v9.4l17.2-15.6L-439,525.4z M-432.8,522.2l6.2,6.2v-15.6h31.2V566h-31.2v-12.5l-6.2,6.2v15.6  c0,3.1,0,3.1,3.1,3.1h37.5c3.1,0,3.1,0,3.1-3.1v-68.8c0-3.1,0-3.1-3.1-3.1h-37.5c-3.1,0-3.1,0-3.1,3.1V522.2z M-445.2,528.5v-21.9  c0-3.1,0-3.1-3.1-3.1h-37.5c-3.1,0-3.1,0-3.1,3.1v68.8c0,3.1,0,3.1,3.1,3.1h37.5c3.1,0,3.1,0,3.1-3.1v-21.9h-6.2V566h-31.2v-53.1  h31.2v15.6H-445.2z"></path></svg>